<?xml version="1.0" encoding="UTF-8"?>
<svg width="166px" height="128px" viewBox="0 0 166 128" version="1.1" xmlns="http://www.w3.org/2000/svg" xmlns:xlink="http://www.w3.org/1999/xlink">
    <!-- Generator: Sketch 63.1 (92452) - https://sketch.com -->
    <title>playstation-4</title>
    <desc>Created with Sketch.</desc>
    <g id="Page-1" stroke="none" stroke-width="1" fill="none" fill-rule="evenodd">
        <g id="Desktop-HD" transform="translate(-1017.000000, -996.000000)" fill="#FFFFFF" fill-rule="nonzero">
            <g id="Playstaion" transform="translate(880.000000, 880.000000)">
                <g id="Group-2" transform="translate(116.000000, 116.000000)">
                    <g id="playstation-4" transform="translate(21.500000, 0.000000)">
                        <g id="Group">
                            <path d="M61.8188562,-5.72724498e-13 C68.9794686,1.33362663 76.0178445,3.23880753 83.0232166,5.22459224 C87.0289057,6.3872411 91.0260383,7.59019186 94.9962788,8.87130389 C101.232783,10.8558673 107.442396,13.1030038 113.090943,16.4541681 C115.621238,17.9893043 118.051299,19.7235074 120.128097,21.8387467 C122.377923,24.0458155 124.220903,26.6316978 125.572509,29.4777894 C128.035574,34.6168927 128.879006,40.3580821 129.128368,46.0027912 C129.245715,49.6861409 129.238381,53.4012437 128.548967,57.0369639 C127.976901,60.1963889 126.959893,63.3118482 125.268141,66.0560414 C123.774411,68.4790407 121.697613,70.575961 119.177097,71.9266854 C116.75926,73.228559 113.991826,73.8489641 111.250062,73.7940069 C107.091577,73.8367514 103.056552,72.5128949 99.3246722,70.7762492 C99.2562198,58.3766969 99.3136709,45.974702 99.2953354,33.5775921 C99.2696658,31.3341195 99.4224614,29.0674427 98.9689641,26.8545018 C98.6499269,25.139839 97.9507343,23.4117422 96.602466,22.2478721 C95.7101398,21.4430553 94.551338,20.9887429 93.3876469,20.7432677 C92.2105097,20.5197753 90.9551411,21.0192747 90.2266117,21.9633162 C89.0152483,23.4752483 88.6974335,25.4830158 88.6424271,27.3649926 C88.6326482,60.5603273 88.6546507,93.7568832 88.6326482,126.949775 C79.6936047,124.119527 70.7556734,121.285774 61.8188562,118.448516 C61.8102996,78.9660846 61.8137234,39.4836529 61.8188562,-5.72724498e-13 L61.8188562,-5.72724498e-13 Z M21.644618,84.0038225 C33.2974207,79.8820369 44.9379997,75.7187282 56.5956918,71.6115978 C56.6140273,76.1815894 56.5956918,80.7540236 56.603026,85.3289003 C56.5956918,85.9493053 56.6348075,86.572153 56.5577985,87.1888942 C47.3436134,90.4521271 38.1465414,93.7727597 28.9421353,97.0567543 C27.6659865,97.5391558 26.3568339,98.0838422 25.3728304,99.0571942 C24.9144436,99.5139491 24.5404,100.189311 24.7909848,100.842691 C25.1063549,101.613312 25.8935577,102.033429 26.6196424,102.349738 C28.6389888,103.170431 30.8465795,103.287673 32.9979413,103.385374 C35.3962209,103.347515 37.8055017,103.167988 40.1536643,102.65017 C41.741516,102.337525 43.2694719,101.80383 44.7827594,101.23594 C48.716329,99.8131602 52.6498986,98.381832 56.58958,96.9737079 C56.6176944,100.840248 56.5944695,104.709231 56.6018036,108.580656 C56.58958,109.35372 56.6372522,110.131669 56.5602432,110.901069 C51.7221238,111.769392 46.8265532,112.358044 41.90898,112.436205 C32.0066036,112.659697 22.0810022,111.128225 12.6749059,108.03597 C9.59087975,107.143222 6.52518909,105.953705 3.94844431,103.997231 C2.53050126,102.90053 1.2616867,101.521717 0.616278143,99.8253729 C0.0759929464,98.3879384 0.115108617,96.729454 0.788631565,95.3433127 C1.43770722,93.959614 2.57206166,92.8677988 3.82131838,92.017795 C6.71098852,90.0234614 9.90013802,88.5017593 13.1296256,87.1461498 C15.9153947,85.961518 18.8026201,85.0382381 21.644618,84.0038225 L21.644618,84.0038225 Z" id="Shape"></path>
                            <path d="M115.403657,78.7963281 C118.04641,78.4910106 120.706275,78.4189557 123.363696,78.3236967 C132.103604,78.3566709 140.889961,79.4423798 149.250936,82.0632248 C150.891349,82.5615029 152.480423,83.2075546 154.114725,83.7265943 C157.028842,84.7903203 159.945405,86.0799812 162.277676,88.1732377 C163.678506,89.4494646 164.887425,91.1702338 164.903316,93.1340356 C164.986437,94.7338991 164.262797,96.267814 163.223787,97.4463393 C161.248445,99.6592802 158.637474,101.180982 156.016724,102.507281 C153.226066,103.928839 150.226383,104.846013 147.300042,105.928058 C129.438849,112.336061 111.575211,118.741621 93.7176853,125.156951 C93.7140182,120.157073 93.7225748,115.159637 93.7140182,110.165864 C93.7409103,109.965576 93.6321198,109.617514 93.9132637,109.565 C107.503514,104.734878 121.090098,99.8901002 134.679126,95.0453229 C136.51634,94.3589693 138.495349,93.8619124 140.053864,92.6174385 C140.691938,92.1167179 141.316567,91.32045 141.003641,90.460676 C140.67727,89.7095951 139.897401,89.2943634 139.179873,88.9829396 C137.145858,88.1781228 134.930933,88.0230215 132.767348,87.961958 C129.380175,87.9851621 125.963666,88.4016151 122.741513,89.487324 C113.061607,92.8763477 103.400036,96.3068946 93.7176853,99.6849269 C93.7189077,94.3174461 93.7140182,88.9536291 93.7201301,83.5873695 C100.723057,81.131396 108.037688,79.6426681 115.403657,78.7963281 L115.403657,78.7963281 Z M155.10973,115.770272 C157.223198,115.507699 159.430789,116.454183 160.697159,118.165182 C162.079653,119.932359 162.332683,122.479928 161.356013,124.497466 C160.369565,126.590722 158.116747,128.057467 155.78203,127.981748 C153.634336,128.029378 151.553871,126.780019 150.496526,124.928574 C149.541859,123.2994 149.426956,121.21225 150.166487,119.478047 C150.998917,117.475164 152.957146,116.014526 155.10973,115.770272 Z M154.650121,116.898725 C153.456252,117.175916 152.403249,117.875699 151.685886,118.868633 C150.829767,120.049953 150.520965,121.541013 150.837565,122.964772 C151.123976,124.277198 151.918478,125.423101 153.047601,126.152286 C154.762578,127.278297 157.16697,127.216012 158.808605,125.980087 C160.501581,124.784464 161.305897,122.490919 160.722829,120.503913 C160.363453,119.160517 159.402675,118.016187 158.192534,117.350595 C157.116853,116.782704 155.83337,116.617833 154.650121,116.898725 L154.650121,116.898725 Z" id="Shape"></path>
                            <path d="M153.185728,118.336159 C154.287078,118.330053 155.392096,118.334938 156.494669,118.332496 C157.118075,118.341044 157.805044,118.486376 158.24754,118.965113 C158.691258,119.465834 158.727929,120.196153 158.605693,120.823886 C158.536018,121.239118 158.170531,121.484593 157.905278,121.774034 C158.135083,121.979207 158.430895,122.169725 158.485901,122.503132 C158.613027,123.139414 158.478567,123.806227 158.682702,124.429074 C158.81105,124.650124 158.941843,124.872395 158.951622,125.134968 C158.494458,125.148402 158.038516,125.139854 157.581351,125.147181 C157.273315,124.421747 157.504342,123.608381 157.311209,122.862185 C157.235422,122.558089 156.920052,122.368792 156.620573,122.378562 C155.87493,122.348031 155.125621,122.368792 154.383645,122.368792 C154.371422,123.294515 154.409315,124.22268 154.36042,125.147181 C153.971333,125.139651 153.582133,125.140058 153.193062,125.148402 C153.172282,122.874398 153.185728,120.605279 153.185728,118.336159 L153.185728,118.336159 Z M154.381201,119.415762 L154.381201,121.297739 C155.047389,121.302624 155.7148,121.307509 156.383434,121.300181 C156.714695,121.297739 157.09974,121.235454 157.314876,120.954562 C157.536339,120.588044 157.543343,120.130836 157.333211,119.757717 C157.160858,119.47194 156.797816,119.44263 156.499559,119.424311 C155.793032,119.402328 155.086505,119.415762 154.381201,119.415762 L154.381201,119.415762 Z" id="Shape"></path>
                        </g>
                    </g>
                </g>
            </g>
        </g>
    </g>
</svg>