<?xml version="1.0" encoding="UTF-8"?>
<svg width="360px" height="38px" viewBox="0 0 360 38" version="1.1" xmlns="http://www.w3.org/2000/svg" xmlns:xlink="http://www.w3.org/1999/xlink">
    <!-- Generator: Sketch 63.1 (92452) - https://sketch.com -->
    <title>square-enix</title>
    <desc>Created with Sketch.</desc>
    <g id="Page-1" stroke="none" stroke-width="1" fill="none" fill-rule="evenodd">
        <g id="Desktop-HD" transform="translate(-40.000000, -1521.000000)" fill-rule="nonzero">
            <g id="square-enix" transform="translate(40.000000, 1521.000000)">
                <path d="M46.2032086,0 C43.0036364,0 40.4278075,2.57582888 40.4278075,5.77540107 L40.4278075,27.4331551 C40.4278075,30.6327273 43.0036364,33.2085561 46.2032086,33.2085561 L53.9037433,33.2085561 L53.9037433,37.540107 L61.1229947,37.540107 L61.1229947,33.2085561 L69.3048128,33.2085561 C72.504385,33.2085561 75.0802139,30.6327273 75.0802139,27.4331551 L75.0802139,5.77540107 C75.0802139,2.57582888 72.504385,0 69.3048128,0 L46.2032086,0 Z M47.6470588,5.77540107 L67.3796791,5.77540107 L67.3796791,26.9518717 L61.1229947,26.9518717 L61.1229947,23.5828877 L53.9037433,23.5828877 L53.9037433,26.9518717 L47.6470588,26.9518717 L47.6470588,5.77540107 Z" id="Shape" fill="#000000"></path>
                <path d="M6.83026884,0 C3.5868669,0 0.975752692,2.53849802 0.975752692,5.6916996 L0.975752692,13.2806324 C0.975752692,16.433834 3.5868669,18.972332 6.83026884,18.972332 L28.2968281,18.972332 L29.2725808,18.972332 L29.2725808,26.5612648 L28.2968281,26.5612648 L15.1241667,26.5612648 L9.26965058,26.5612648 L8.29389788,26.5612648 L0,26.5612648 L0,27.0355731 C0,30.1887747 2.6111142,32.7272727 5.85451615,32.7272727 L8.29389788,32.7272727 L9.26965058,32.7272727 L29.7604571,32.7272727 C33.0038591,32.7272727 35.6149733,30.1887747 35.6149733,27.0355731 L35.6149733,18.4980237 C35.6149733,15.3448221 33.0038591,12.8063241 29.7604571,12.8063241 L28.2968281,12.8063241 L7.31814519,12.8063241 L7.31814519,5.6916996 L28.2968281,5.6916996 L28.2968281,8.53754941 L35.1270969,8.53754941 L35.1270969,5.6916996 C35.1270969,2.53849802 32.5159827,0 29.2725808,0 L6.83026884,0 Z" id="Path" fill="#000000"></path>
                <path d="M81.8181818,0 L81.8181818,5.6916996 L81.8181818,27.0355731 C81.8181818,30.1887747 84.3555655,32.7272727 87.5073829,32.7272727 L91.3001836,32.7272727 L95.5670844,32.7272727 L96.0411845,32.7272727 L99.8339852,32.7272727 L107.893687,32.7272727 C111.045504,32.7272727 113.582888,30.1887747 113.582888,27.0355731 L113.582888,5.6916996 L113.582888,0 L109.315987,0 L106.945486,0 L106.471386,0 L106.471386,26.5612648 L99.8339852,26.5612648 L96.0411845,26.5612648 L95.5670844,26.5612648 L91.3001836,26.5612648 L88.9296831,26.5612648 L88.9296831,0 L87.5073829,0 L81.8181818,0 Z" id="Path" fill="#000000"></path>
                <path d="M132.112299,0.4743083 L115.508021,32.7272727 L122.727273,32.7272727 L126.397059,25.6126482 L145.046791,25.6126482 L148.716578,32.7272727 L155.935829,32.7272727 L139.331551,0.4743083 L139.090909,0 L132.352941,0 L132.112299,0.4743083 Z M135.721925,7.48505929 L142.129251,19.9209486 L129.31508,19.9209486 L135.721925,7.48505929 Z" id="Shape" fill="#000000"></path>
                <path d="M158.823529,0 L158.823529,5.6916996 L158.823529,14.7035573 L158.823529,32.7272727 L166.094718,32.7272727 L166.094718,20.3952569 L170.699804,20.3952569 L182.818451,32.7272727 L192.513369,32.7272727 L180.394722,20.3952569 L184.030316,20.3952569 C187.252907,20.3952569 189.847267,17.8567589 189.847267,14.7035573 L189.847267,5.6916996 C189.847267,2.53849802 187.252907,0 184.030316,0 L166.094718,0 L164.64048,0 L158.823529,0 Z M166.094718,5.6916996 L180.637095,5.6916996 C181.711292,5.6916996 182.576078,6.53786561 182.576078,7.58893281 L182.576078,12.8063241 C182.576078,13.8573913 181.711292,14.7035573 180.637095,14.7035573 L166.094718,14.7035573 L166.094718,5.6916996 Z" id="Shape" fill="#000000"></path>
                <polygon id="Path" fill="#000000" points="195.40107 0 195.40107 32.7272727 223.315508 32.7272727 223.315508 26.5612648 202.620321 26.5612648 202.620321 5.6916996 223.315508 5.6916996 223.315508 0"></polygon>
                <rect id="Rectangle" fill="#E20A16" x="209.839572" y="13.4759358" width="11.5508021" height="6.73796791"></rect>
                <polygon id="Path" fill="#000000" points="239.679144 0 239.679144 32.7272727 267.593583 32.7272727 267.593583 26.5612648 246.898396 26.5612648 246.898396 5.6916996 267.593583 5.6916996 267.593583 0"></polygon>
                <rect id="Rectangle" fill="#E20A16" x="253.15508" y="13.4759358" width="11.5508021" height="6.73796791"></rect>
                <polygon id="Path" fill="#000000" points="273.368984 0 273.368984 1.66007905 273.368984 32.7272727 280.210613 32.7272727 280.210613 9.57533597 297.803373 29.9411858 298.292061 30.504664 300.216513 32.7272727 301.712875 32.7272727 304.645002 32.7272727 305.13369 32.7272727 305.13369 0 304.645002 0 297.803373 0 297.803373 22.0259289 280.210613 1.66007905 278.775337 0"></polygon>
                <rect id="Rectangle" fill="#000000" x="309.946524" y="0" width="7.70053476" height="32.7272727"></rect>
                <polygon id="Path" fill="#000000" points="321.587455 0 335.984549 15.815336 321.497326 32.7272727 330.126666 32.7272727 340.433932 20.7064032 351.370661 32.7272727 360 32.7272727 344.613888 15.815336 358.172018 0 349.542679 0 340.164025 10.9389723 330.216794 0"></polygon>
            </g>
        </g>
    </g>
</svg>